<svg width="66" height="66" viewBox="0 0 66 66" fill="none" xmlns="http://www.w3.org/2000/svg">
<g clip-path="url(#clip0)">
<path d="M56.3345 9.66545C50.1017 3.43263 41.8145 0 33 0C24.185 0 15.8983 3.43263 9.66545 9.66545C3.43263 15.8983 0 24.185 0 33C0 41.8145 3.43263 50.1017 9.66545 56.3345C15.8983 62.5674 24.185 66 33 66C41.8145 66 50.1017 62.5674 56.3345 56.3345C62.5674 50.1017 66 41.8145 66 33C66 24.185 62.5674 15.8983 56.3345 9.66545ZM16.5438 57.0264C17.924 49.0795 24.8104 43.2178 33 43.2178C41.1901 43.2178 48.076 49.0795 49.4562 57.0264C44.7708 60.2455 39.1019 62.1328 33 62.1328C26.8981 62.1328 21.2292 60.2455 16.5438 57.0264ZM22.5072 28.8579C22.5072 23.0717 27.2143 18.3651 33 18.3651C38.7857 18.3651 43.4928 23.0722 43.4928 28.8579C43.4928 34.6436 38.7857 39.3506 33 39.3506C27.2143 39.3506 22.5072 34.6436 22.5072 28.8579ZM52.8057 54.3441C51.7649 50.6445 49.6979 47.2879 46.8005 44.666C45.023 43.0572 42.9998 41.7878 40.8245 40.893C44.7561 38.3285 47.3605 33.8918 47.3605 28.8579C47.3605 20.9397 40.9182 14.4979 33 14.4979C25.0818 14.4979 18.64 20.9397 18.64 28.8579C18.64 33.8918 21.2444 38.3285 25.1755 40.893C23.0007 41.7878 20.977 43.0567 19.1995 44.6655C16.3026 47.2874 14.2351 50.644 13.1943 54.3436C7.46146 49.0196 3.86719 41.4222 3.86719 33C3.86719 16.9361 16.9361 3.86719 33 3.86719C49.0639 3.86719 62.1328 16.9361 62.1328 33C62.1328 41.4227 58.5385 49.0201 52.8057 54.3441Z" fill="#12FF85"/>
</g>
<defs>
<clipPath id="clip0">
<rect width="66" height="66" fill="white"/>
</clipPath>
</defs>
</svg>
