<svg width="100" height="100" viewBox="0 0 100 100" fill="none" xmlns="http://www.w3.org/2000/svg">
<path d="M38.25 77.4208C36.6349 77.4208 35.3203 76.1063 35.3203 74.4911C35.3203 72.8729 34.0088 71.5614 32.3906 71.5614C30.7724 71.5614 29.4609 72.8729 29.4609 74.4911C29.4609 78.3218 31.9252 81.5857 35.3516 82.7866V85.3516C35.3516 86.9698 36.6631 88.2812 38.2813 88.2812C39.8995 88.2812 41.211 86.9698 41.211 85.3516V82.7652C44.6045 81.5475 47.0391 78.299 47.0391 74.4911C47.0391 69.6449 43.0962 65.7021 38.25 65.7021C36.6349 65.7021 35.3203 64.3875 35.3203 62.7724C35.3203 61.1565 36.6349 59.8427 38.25 59.8427C39.8651 59.8427 41.1797 61.1565 41.1797 62.7724C41.1797 64.3906 42.4912 65.7021 44.1094 65.7021C45.7276 65.7021 47.0391 64.3906 47.0391 62.7724C47.0391 58.9645 44.6045 55.7159 41.211 54.4975V50.1953C41.211 48.5771 39.8995 47.2656 38.2813 47.2656C36.6631 47.2656 35.3516 48.5771 35.3516 50.1953V54.4762C31.9252 55.677 29.4609 58.9409 29.4609 62.7724C29.4609 67.6186 33.4038 71.5614 38.25 71.5614C39.8651 71.5614 41.1797 72.8752 41.1797 74.4911C41.1797 76.1063 39.8651 77.4208 38.25 77.4208Z" fill="#12FF85"/>
<path d="M11.9415 95.2156C18.0382 98.4795 26.4084 100 38.2812 100C47.9416 100 55.2124 98.999 60.8612 96.8704C62.4748 98.7823 64.8865 100 67.5781 100H91.2109C96.0571 100 100 96.0571 100 91.2109C100 88.9618 99.1493 86.908 97.7547 85.3516C99.1501 83.7952 100 81.7413 100 79.4922C100 77.243 99.1493 75.1892 97.7547 73.6328C99.1501 72.0764 100 70.0226 100 67.7734C100 65.5243 99.1493 63.4705 97.7547 61.9141C99.1501 60.3577 100 58.3038 100 56.0547C100 51.2085 96.0571 47.2656 91.2109 47.2656H67.5781C67.2928 47.2656 67.0105 47.2801 66.732 47.3076C63.7917 43.7462 60.3462 40.76 56.5498 38.4697C57.9407 36.9148 58.7891 34.8633 58.7891 32.6172C58.7891 29.1161 56.7307 26.0872 53.7605 24.675L58.6449 9.69772C58.9355 8.80508 58.7814 7.82776 58.2306 7.06863C57.679 6.30875 56.7978 5.85938 55.8594 5.85938H46.5668C45.3568 2.44904 42.1005 0 38.2812 0C34.4612 0 31.2035 2.44904 29.9942 5.85938H20.7031C19.7647 5.85938 18.8835 6.30875 18.3319 7.06863C17.7811 7.82776 17.627 8.80508 17.9176 9.69772L22.802 24.675C19.8318 26.0872 17.7734 29.1161 17.7734 32.6172C17.7734 34.8648 18.6226 36.9179 20.0157 38.4735C8.26111 45.5681 0 59.0424 0 73.6328C0 83.712 4.01764 90.9729 11.9415 95.2156ZM94.1406 67.7734C94.1406 69.3886 92.8261 70.7031 91.2109 70.7031H67.5781C65.963 70.7031 64.6484 69.3886 64.6484 67.7734C64.6484 66.1583 65.963 64.8438 67.5781 64.8438H91.2109C92.8261 64.8438 94.1406 66.1583 94.1406 67.7734ZM94.1406 79.4922C94.1406 81.1073 92.8261 82.4219 91.2109 82.4219H67.5781C65.963 82.4219 64.6484 81.1073 64.6484 79.4922C64.6484 77.877 65.963 76.5625 67.5781 76.5625H91.2109C92.8261 76.5625 94.1406 77.877 94.1406 79.4922ZM91.2109 94.1406H67.5781C65.963 94.1406 64.6484 92.8261 64.6484 91.2109C64.6484 89.5958 65.963 88.2812 67.5781 88.2812H91.2109C92.8261 88.2812 94.1406 89.5958 94.1406 91.2109C94.1406 92.8261 92.8261 94.1406 91.2109 94.1406ZM94.1406 56.0547C94.1406 57.6698 92.8261 58.9844 91.2109 58.9844H67.5781C65.963 58.9844 64.6484 57.6698 64.6484 56.0547C64.6484 54.4395 65.963 53.125 67.5781 53.125H91.2109C92.8261 53.125 94.1406 54.4395 94.1406 56.0547ZM49.9161 35.5469H26.6472C26.6212 35.5461 26.5953 35.5469 26.5694 35.5469H26.5625C24.9474 35.5469 23.6328 34.2323 23.6328 32.6172C23.6328 31.0051 24.942 29.6928 26.5533 29.6883H26.5617C26.5686 29.6883 26.5755 29.6875 26.5823 29.6875H49.9794C49.9863 29.6875 49.9939 29.6883 50.0008 29.6883H50.0092C51.6205 29.6928 52.9297 31.0051 52.9297 32.6172C52.9297 34.2323 51.6151 35.5469 50 35.5469H49.9908C49.9664 35.5469 49.9413 35.5461 49.9161 35.5469ZM32.4219 11.7188C34.0401 11.7188 35.3516 10.4073 35.3516 8.78906C35.3516 7.17392 36.6661 5.85938 38.2812 5.85938C39.8964 5.85938 41.2109 7.17392 41.2109 8.78906V14.6484C41.2109 16.2666 42.5224 17.5781 44.1406 17.5781C45.7588 17.5781 47.0703 16.2666 47.0703 14.6484V11.7188H51.8227L47.8737 23.8281H28.6888L24.7398 11.7188H32.4219ZM27.1339 41.4062H49.4171C53.8536 43.2594 57.8972 46.1777 61.2694 49.9443C59.7359 51.5274 58.7891 53.6819 58.7891 56.0547C58.7891 58.3038 59.6397 60.3577 61.0344 61.9141C59.6397 63.4705 58.7891 65.5243 58.7891 67.7734C58.7891 70.0226 59.6397 72.0764 61.0344 73.6328C59.6397 75.1892 58.7891 77.243 58.7891 79.4922C58.7891 81.7413 59.6397 83.7952 61.0344 85.3516C59.6397 86.908 58.7891 88.9618 58.7891 91.2109C58.7891 91.2712 58.7921 91.3307 58.7936 91.3902C53.8376 93.2617 47.2366 94.1406 38.2812 94.1406C27.4109 94.1406 19.9196 92.8406 14.7072 90.0497C8.67081 86.8179 5.85938 81.6017 5.85938 73.6328C5.85938 59.8145 14.5813 46.6461 27.1339 41.4062Z" fill="#12FF85"/>
</svg>
