<svg width="300" height="300" viewBox="0 0 300 300" fill="none" xmlns="http://www.w3.org/2000/svg">
<path d="M300 150C300 121.221 291.722 93.0504 276.152 68.8474C260.582 44.6444 238.379 25.4311 212.191 13.4995L171.767 102.225C180.933 106.401 188.704 113.125 194.153 121.596C199.603 130.067 202.5 139.927 202.5 150H300Z" fill="#F46E8F"/>
<path d="M212.191 13.4998C180.911 -0.751662 145.685 -3.82747 112.408 4.78705C79.1314 13.4016 49.8229 33.1837 29.3873 60.8231L107.786 118.788C114.938 109.114 125.196 102.191 136.843 99.1755C148.49 96.1604 160.819 97.2369 171.767 102.225L212.191 13.4998Z" fill="#7700A6"/>
<path d="M29.3872 60.8232C12.0919 84.2153 1.97199 112.132 0.260013 141.173C-1.45196 170.214 5.31787 199.126 19.745 224.388C34.1721 249.651 55.6339 270.172 81.5164 283.454C107.399 296.736 136.585 302.205 165.521 299.195L155.432 202.218C145.305 203.272 135.09 201.358 126.031 196.709C116.972 192.06 109.46 184.878 104.411 176.036C99.3613 167.194 96.9918 157.075 97.591 146.911C98.1902 136.746 101.732 126.975 107.786 118.788L29.3872 60.8232Z" fill="#12FF85"/>
<path d="M165.521 299.195C202.417 295.356 236.582 277.983 261.418 250.429C286.255 222.875 300 187.095 300 150H202.5C202.5 162.983 197.689 175.506 188.997 185.15C180.304 194.794 168.346 200.875 155.432 202.218L165.521 299.195Z" fill="#F488F4"/>
</svg>
