<svg width="51" height="51" viewBox="0 0 51 51" fill="none" xmlns="http://www.w3.org/2000/svg">
<g clip-path="url(#clip0)">
<path d="M40.3749 25.5981C39.1998 25.5981 38.25 26.5502 38.25 27.723V44.7231C38.25 45.8939 37.2979 46.848 36.1251 46.848H6.375C5.20187 46.848 4.25013 45.8939 4.25013 44.7231V14.973C4.25013 13.8022 5.20187 12.8481 6.375 12.8481H23.3751C24.5502 12.8481 25.5 11.896 25.5 10.7232C25.5 9.55009 24.5502 8.59796 23.3751 8.59796H6.375C2.86027 8.59796 0 11.4582 0 14.973V44.7231C0 48.2378 2.86027 51.0981 6.375 51.0981H36.1251C39.6399 51.0981 42.5001 48.2378 42.5001 44.7231V27.723C42.5001 26.5479 41.5499 25.5981 40.3749 25.5981Z" fill="#12FF85"/>
<path d="M19.9238 23.6623C19.7751 23.8109 19.6751 24 19.6327 24.2039L18.1304 31.7182C18.0604 32.0664 18.1709 32.4256 18.4215 32.6785C18.6234 32.8804 18.8954 32.9886 19.174 32.9886C19.2417 32.9886 19.3121 32.9824 19.3822 32.9676L26.8941 31.4653C27.1023 31.4225 27.2914 31.3229 27.4381 31.1738L44.251 14.3609L36.7391 6.8493L19.9238 23.6623Z" fill="#12FF85"/>
<path d="M49.4443 1.6537C47.3728 -0.418257 44.0024 -0.418257 41.9324 1.6537L38.9916 4.59451L46.5035 12.1065L49.4443 9.16525C50.4474 8.16449 51 6.82988 51 5.41045C51 3.99101 50.4474 2.6564 49.4443 1.6537Z" fill="#12FF85"/>
</g>
<defs>
<clipPath id="clip0">
<rect width="51" height="51" fill="white"/>
</clipPath>
</defs>
</svg>
