<svg width="100" height="100" viewBox="0 0 100 100" fill="none" xmlns="http://www.w3.org/2000/svg">
<path d="M50.0066 47.0698C37.146 47.0698 26.6832 56.3027 26.6832 67.6514C26.6832 79.0002 37.146 88.2332 50.0066 88.2332C62.8672 88.2332 73.3299 79.0002 73.3299 67.6514C73.3299 56.3027 62.8672 47.0698 50.0066 47.0698ZM66.3555 64.721H53.3273V53.2244C59.8665 54.3948 65.0292 58.9505 66.3555 64.721ZM50.0066 82.3722C40.8081 82.3722 33.3247 75.7684 33.3247 67.6512C33.3247 60.5372 39.0729 54.5866 46.6858 53.2242V70.5816H66.3555C64.8116 77.2998 58.068 82.3722 50.0066 82.3722Z" fill="#12FF85"/>
<path d="M26.6832 41.1632H73.3299V11.7674H26.6832V41.1632ZM33.3247 17.6282H66.6885V35.3024H33.3247V17.6282Z" fill="#12FF85"/>
<path d="M100 23.5122V5.8838H86.665V0H6.68067V11.7674H0V17.6282H6.68045V23.5348H0V29.3956H6.68045V35.3022H0V41.163H6.68045V47.0696H0V52.9304H6.68045V58.837H0V64.6978H6.68045V70.6044H0V76.4652H6.68045V82.3718H0V88.2326H6.68045V100H86.6648V72.0528H99.9998V54.4247H86.6648V48.518H99.9998V30.8899H86.6648V23.5122H100ZM93.3585 11.7445V17.6512H86.665V11.7445H93.3585ZM93.3585 60.2854V66.1921H86.665V60.2854H93.3585ZM93.3585 36.7504V42.6571H86.665V36.7504H93.3585ZM80.0235 94.1398H13.3222V88.2332H20.0028V82.3724H13.3222V76.4658H20.0028V70.605H13.3222V64.6984H20.0028V58.8376H13.3222V52.931H20.0028V47.0702H13.3222V41.1636H20.0028V35.3028H13.3222V29.3961H20.0028V23.5354H13.3222V17.6282H20.0028V11.7674H13.3222V5.86075C83.1563 5.86075 80.0235 5.84805 80.0235 5.8838V94.1398Z" fill="#12FF85"/>
</svg>
